<svg version="1.1" id="Layer_1" xmlns="https://www.w3.org/2000/svg" xmlns:xlink="https://www.w3.org/1999/xlink" x="0px" y="0px"
	 width="1920px" height="436px" viewBox="0 0 1920 436" enable-background="new 0 0 1920 436" xml:space="preserve">
<g>
	<path fill="#FFFFFF" d="M42.083,363.472l-20.042,0.524v-4.716l3.144-0.655c5.587-1.134,8.383-5.151,8.383-12.051V286.58
		c0-3.23-0.481-5.414-1.441-6.55c-0.962-1.134-2.927-1.92-5.895-2.358l-4.061-0.654v-4.716c7.771,0.351,14.757,0.524,20.959,0.524
		c3.753,0,8.731-0.086,14.933-0.263c6.2-0.174,10.303-0.262,12.313-0.262c13.1,0,24.188,3.887,33.272,11.658
		c9.082,7.773,13.624,18.47,13.624,32.093c0,13.361-4.826,24.692-14.475,33.993c-9.65,9.3-22.465,13.95-38.446,13.95
		c-2.62,0-6.202-0.086-10.741-0.262C49.068,363.561,45.226,363.472,42.083,363.472z M62.124,358.625
		c23.752,0,35.63-12.837,35.63-38.512c0-12.923-3.451-23.229-10.348-30.914c-6.9-7.684-16.026-11.527-27.377-11.527
		c-4.018,0-6.812,0.262-8.384,0.786v71.26C51.645,355.657,55.137,358.625,62.124,358.625z"/>
	<path fill="#FFFFFF" d="M151.199,303.085v49.122c0,2.357,0.327,4.018,0.982,4.978c0.655,0.962,1.811,1.572,3.471,1.834l3.93,0.655
		v4.322c-5.416-0.262-10.96-0.393-16.636-0.393l-17.029,0.393v-4.322l2.62-0.394c4.628-0.698,6.943-3.405,6.943-8.121v-30.391
		c0-2.532-0.678-4.366-2.03-5.501c-1.355-1.135-3.517-1.703-6.484-1.703l-1.048-3.93c3.754-0.348,7.729-1.068,11.92-2.162
		c4.191-1.09,7.466-2.073,9.824-2.947L151.199,303.085z M132.598,278.196c0-2.532,0.917-4.671,2.751-6.419
		c1.833-1.746,4.104-2.619,6.812-2.619c2.62,0,4.847,0.873,6.681,2.619c1.833,1.748,2.75,3.887,2.75,6.419
		c0,2.62-0.917,4.826-2.75,6.615c-1.834,1.79-4.061,2.685-6.681,2.685c-2.708,0-4.978-0.895-6.812-2.685
		C133.515,283.022,132.598,280.816,132.598,278.196z"/>
	<path fill="#FFFFFF" d="M228.875,265.752v82.787c0,2.446,0.675,4.236,2.03,5.371c1.353,1.136,3.514,1.702,6.484,1.702l1.048,3.93
		c-3.756,0.351-7.686,1.071-11.79,2.162c-4.105,1.093-7.292,2.118-9.562,3.078l-3.406,1.31l-0.524-7.729
		c-1.136,0.262-2.685,1.07-4.65,2.424c-1.965,1.354-4.214,2.576-6.746,3.667c-2.534,1.092-5.416,1.638-8.646,1.638
		c-7.162,0-13.21-2.902-18.143-8.711c-4.935-5.807-7.401-12.814-7.401-21.023c0-9.432,3.187-17.357,9.562-23.775
		c6.374-6.419,14.933-9.629,25.674-9.629c3.842,0,7.291,0.308,10.348,0.918v-20.436c0-2.531-0.677-4.343-2.03-5.436
		c-1.355-1.092-3.516-1.638-6.484-1.638l-1.048-4.061c3.753-0.349,7.729-1.068,11.92-2.161c4.192-1.092,7.467-2.117,9.825-3.078
		L228.875,265.752z M201.891,356.398c1.658,0,3.754-0.544,6.288-1.638c2.532-1.091,4.192-1.68,4.978-1.768v-31.962
		c0-3.93-1.093-6.898-3.274-8.908c-2.184-2.008-5.154-3.013-8.908-3.013c-4.804,0-8.69,2.292-11.658,6.877
		c-2.97,4.585-4.454,10.371-4.454,17.356c0,6.9,1.418,12.467,4.257,16.702C191.956,354.282,196.213,356.398,201.891,356.398z"/>
	<path fill="#FFFFFF" d="M344.278,366.092h-5.501l-14.147-38.25l-16.374,38.25h-5.764l-18.863-48.729
		c-0.962-2.444-1.922-4.191-2.882-5.24c-0.962-1.048-2.227-1.746-3.799-2.096l-2.75-0.654v-4.323
		c5.414,0.35,10.915,0.524,16.505,0.524l15.457-0.524v4.323l-2.62,0.654c-2.97,0.7-4.454,1.922-4.454,3.668
		c0,0.176,0.217,1.048,0.655,2.619l9.955,30.129l11.527-27.64c1.048-2.706,1.572-4.54,1.572-5.501c0-1.572-1.267-2.664-3.798-3.275
		l-2.751-0.654v-4.323c4.104,0.262,9.605,0.393,16.505,0.393l12.968,40.477l11.658-28.294c0.698-1.834,1.048-3.275,1.048-4.322
		c0-1.572-1.267-2.664-3.798-3.275l-2.751-0.654v-4.323c4.366,0.262,8.469,0.393,12.313,0.393l11.79-0.393v4.323l-2.882,0.654
		c-4.106,0.874-7.335,4.105-9.693,9.693L344.278,366.092z"/>
	<path fill="#FFFFFF" d="M432.696,325.615l-3.013,3.668l-37.463-0.523c-0.176,1.485-0.262,3.012-0.262,4.584
		c0,6.464,1.854,11.9,5.567,16.309c3.71,4.411,9.366,6.615,16.963,6.615c4.802,0,9.736-0.786,14.802-2.357l1.833,3.405
		c-3.582,3.058-7.335,5.285-11.265,6.681s-8.776,2.096-14.54,2.096c-8.472,0-15.414-2.706-20.828-8.121
		c-5.416-5.414-8.122-12.618-8.122-21.613c0-9.693,3.295-17.685,9.89-23.973c6.593-6.287,14.606-9.432,24.037-9.432
		c7.421,0,13.011,2.054,16.767,6.157C430.817,313.217,432.696,318.718,432.696,325.615z M392.875,323.65l24.496-1.441
		c0.086-0.436,0.131-1.133,0.131-2.096c0-7.51-3.144-11.265-9.431-11.265c-3.756,0-7.008,1.354-9.759,4.061
		C395.56,315.617,393.747,319.197,392.875,323.65z"/>
	<path fill="#FFFFFF" d="M503.431,356.923c2.096,0,4.147-0.151,6.157-0.459c2.008-0.305,3.449-0.589,4.323-0.852l1.441-0.523
		l1.048,3.799c-6.113,4.804-13.187,7.204-21.221,7.204c-4.892,0-8.799-1.42-11.724-4.257c-2.927-2.837-4.388-6.832-4.388-11.986
		v-37.595h-8.515l-0.524-3.93c3.842-1.484,7.641-3.864,11.396-7.139c3.753-3.275,6.854-6.615,9.3-10.021l4.061,1.18v12.706h18.601
		v7.99h-18.601v35.63C494.785,354.172,497.667,356.923,503.431,356.923z"/>
	<path fill="#FFFFFF" d="M577.31,325.615l-3.013,3.668l-37.463-0.523c-0.176,1.485-0.262,3.012-0.262,4.584
		c0,6.464,1.854,11.9,5.567,16.309c3.71,4.411,9.366,6.615,16.963,6.615c4.802,0,9.736-0.786,14.802-2.357l1.833,3.405
		c-3.582,3.058-7.335,5.285-11.265,6.681s-8.776,2.096-14.54,2.096c-8.472,0-15.414-2.706-20.828-8.121
		c-5.416-5.414-8.122-12.618-8.122-21.613c0-9.693,3.295-17.685,9.89-23.973c6.593-6.287,14.606-9.432,24.037-9.432
		c7.421,0,13.011,2.054,16.767,6.157C575.431,313.217,577.31,318.718,577.31,325.615z M537.488,323.65l24.496-1.441
		c0.086-0.436,0.131-1.133,0.131-2.096c0-7.51-3.144-11.265-9.431-11.265c-3.756,0-7.008,1.354-9.759,4.061
		C540.174,315.617,538.36,319.197,537.488,323.65z"/>
	<path fill="#FFFFFF" d="M608.616,265.752v86.455c0,2.357,0.348,4.018,1.048,4.978c0.698,0.962,1.834,1.572,3.406,1.834l4.061,0.655
		v4.322c-5.502-0.262-11.048-0.393-16.636-0.393l-17.16,0.393v-4.322l2.75-0.394c2.096-0.348,3.776-1.222,5.043-2.62
		c1.265-1.396,1.899-3.229,1.899-5.501v-67.724c0-2.531-0.678-4.343-2.03-5.436c-1.355-1.092-3.517-1.638-6.484-1.638l-1.179-4.061
		c3.753-0.349,7.749-1.068,11.986-2.161c4.234-1.092,7.487-2.117,9.759-3.078L608.616,265.752z"/>
	<path fill="#FFFFFF" d="M648.438,265.752v86.455c0,2.357,0.348,4.018,1.048,4.978c0.698,0.962,1.834,1.572,3.406,1.834l4.061,0.655
		v4.322c-5.502-0.262-11.048-0.393-16.636-0.393l-17.16,0.393v-4.322l2.75-0.394c2.096-0.348,3.776-1.222,5.043-2.62
		c1.265-1.396,1.899-3.229,1.899-5.501v-67.724c0-2.531-0.678-4.343-2.03-5.436c-1.355-1.092-3.517-1.638-6.484-1.638l-1.179-4.061
		c3.753-0.349,7.749-1.068,11.986-2.161c4.234-1.092,7.487-2.117,9.759-3.078L648.438,265.752z"/>
	<path fill="#FFFFFF" d="M721.4,364.127l-18.208-46.764c-0.962-2.444-1.922-4.191-2.882-5.24c-0.962-1.048-2.227-1.746-3.799-2.096
		l-2.751-0.654v-4.323c5.414,0.35,10.916,0.524,16.505,0.524l15.457-0.524v4.323l-2.62,0.654c-2.97,0.7-4.454,1.922-4.454,3.668
		c0,0.176,0.217,1.048,0.655,2.619l10.217,30.26l11.266-27.771c1.048-2.706,1.572-4.54,1.572-5.501c0-1.572-1.267-2.664-3.799-3.275
		l-2.751-0.654v-4.323c4.366,0.262,8.427,0.393,12.183,0.393l11.789-0.393v4.323l-2.751,0.654c-2.272,0.523-4.105,1.529-5.501,3.013
		c-1.398,1.485-2.708,3.713-3.93,6.681l-22.662,53.445c-5.502,13.272-13.842,19.91-25.02,19.91c-4.018,0-7.096-0.852-9.235-2.554
		c-2.139-1.703-3.209-3.91-3.209-6.615c0-1.922,0.677-3.603,2.03-5.044c1.355-1.44,3.295-2.161,5.829-2.161
		c1.048,0,2.051,0.131,3.013,0.394c-0.176,0.697-0.262,1.222-0.262,1.571c0,1.396,0.544,2.51,1.637,3.341
		c1.091,0.829,2.509,1.244,4.257,1.244c6.112,0,10.873-3.93,14.278-11.789L721.4,364.127z"/>
	<path fill="#FFFFFF" d="M791.741,366.092c-9.169,0-16.658-2.771-22.465-8.317c-5.809-5.545-8.711-12.685-8.711-21.417
		c0-9.432,3.187-17.357,9.562-23.775c6.374-6.419,14.933-9.629,25.674-9.629c9.169,0,16.636,2.773,22.399,8.318
		c5.764,5.547,8.646,12.686,8.646,21.418c0,9.432-3.166,17.356-9.497,23.774C811.018,362.883,802.483,366.092,791.741,366.092z
		 M792.266,309.241c-4.63,0-8.187,2.358-10.676,7.073c-2.489,4.717-3.733,10.395-3.733,17.029c0,6.726,1.637,12.817,4.912,18.273
		c3.275,5.459,7.401,8.188,12.379,8.188c4.715,0,8.318-2.358,10.807-7.074s3.733-10.391,3.733-17.029
		c0-6.723-1.66-12.814-4.978-18.273C801.39,311.972,797.243,309.241,792.266,309.241z"/>
	<path fill="#FFFFFF" d="M895.618,305.05v43.489c0,2.446,0.675,4.236,2.03,5.371c1.353,1.136,3.514,1.702,6.484,1.702l1.048,3.93
		c-3.756,0.351-7.663,1.071-11.724,2.162c-4.061,1.093-7.184,2.118-9.366,3.078l-3.406,1.31l-0.655-9.562
		c-1.224,0.263-2.97,1.225-5.24,2.882c-2.272,1.66-4.804,3.189-7.598,4.585c-2.796,1.396-5.764,2.096-8.908,2.096
		c-5.416,0-9.607-1.571-12.575-4.716c-2.97-3.144-4.454-7.378-4.454-12.706v-31.045c0-2.531-0.634-4.389-1.899-5.567
		c-1.267-1.179-3.428-1.769-6.484-1.769v-4.322l22.923-2.096l1.179,1.179v41.263c0,6.549,3.449,9.824,10.348,9.824
		c2.096,0,4.585-0.786,7.467-2.358c2.882-1.571,4.627-2.4,5.24-2.488v-32.748c0-2.706-0.59-4.759-1.769-6.157
		c-1.179-1.396-3.428-2.096-6.746-2.096v-4.322l23.055-2.096L895.618,305.05z"/>
	<path fill="#FFFFFF" d="M978.143,322.341c0-4.54-0.766-7.749-2.293-9.628c-1.529-1.877-4.127-2.816-7.793-2.816
		c-2.621,0-4.543,0.721-5.765,2.161c-1.224,1.44-1.834,3.079-1.834,4.912c0,1.486,0.348,2.796,1.048,3.931
		c-1.572,1.571-3.886,2.357-6.942,2.357c-2.534,0-4.476-0.61-5.829-1.834c-1.355-1.223-2.03-2.837-2.03-4.847
		c0-4.104,2.597-7.401,7.794-9.89c5.195-2.489,11.199-3.734,18.012-3.734c6.811,0,12.094,1.684,15.85,5.044
		c3.754,3.362,5.633,8.362,5.633,14.999c0,2.445-0.197,6.615-0.59,12.51s-0.59,10.108-0.59,12.641c0,2.882,0.656,5.174,1.965,6.877
		c1.311,1.702,3.1,2.554,5.371,2.554c0.787,0,1.572-0.065,2.357-0.196c0.787-0.131,1.354-0.282,1.703-0.458l0.656-0.263l1.703,2.882
		c-0.352,0.524-0.896,1.137-1.639,1.834c-0.742,0.7-2.357,1.66-4.846,2.882c-2.49,1.223-5.131,1.834-7.926,1.834
		c-5.852,0-10.043-2.27-12.574-6.812c-1.137,0.351-2.73,1.113-4.781,2.292c-2.055,1.18-4.303,2.228-6.746,3.145
		c-2.447,0.917-5.197,1.375-8.253,1.375c-4.804,0-8.69-1.179-11.658-3.536c-2.97-2.358-4.454-5.676-4.454-9.956
		c0-6.461,2.925-11.352,8.776-14.671c5.85-3.317,14.278-4.978,25.282-4.978C978.012,328.674,978.143,325.137,978.143,322.341z
		 M959.148,350.373c0,5.065,2.837,7.598,8.514,7.598c1.396,0,3.361-0.437,5.895-1.311c2.533-0.871,4.062-1.353,4.586-1.44
		c-0.701-2.096-1.049-4.759-1.049-7.99l0.525-9.17c-5.154,0-9.52,1.027-13.1,3.079C960.937,343.19,959.148,346.27,959.148,350.373z"
		/>
	<path fill="#FFFFFF" d="M1014.165,345.526v-62.091c0-2.531-0.678-4.343-2.031-5.436c-1.354-1.092-3.516-1.638-6.483-1.638
		l-1.048-4.061c3.753-0.349,7.729-1.068,11.92-2.161c4.191-1.092,7.467-2.117,9.824-3.078l3.537-1.311v44.93
		c1.134-0.262,2.663-1.068,4.585-2.423c1.92-1.353,4.146-2.575,6.681-3.667c2.531-1.092,5.413-1.639,8.646-1.639
		c7.159,0,13.207,2.904,18.142,8.711c4.933,5.81,7.401,12.817,7.401,21.025c0,10.217-3.362,18.339-10.086,24.364
		c-6.726,6.025-15.064,9.038-25.02,9.038c-8.036,0-14.497-1.224-19.388-3.668l-6.68,5.371l-2.882-1.572
		C1013.202,360.897,1014.165,353.998,1014.165,345.526z M1041.018,312.646c-1.571,0-3.624,0.547-6.156,1.639
		c-2.534,1.092-4.191,1.682-4.978,1.768v32.094c0,7.773,3.885,11.658,11.658,11.658c4.802,0,8.776-2.424,11.92-7.271
		c3.145-4.847,4.716-10.456,4.716-16.833c0-6.896-1.44-12.464-4.322-16.701C1050.974,314.766,1046.693,312.646,1041.018,312.646z"/>
	<path fill="#FFFFFF" d="M1113.063,366.092c-9.17,0-16.659-2.771-22.466-8.317c-5.809-5.545-8.711-12.685-8.711-21.417
		c0-9.432,3.188-17.357,9.562-23.775c6.374-6.419,14.934-9.629,25.675-9.629c9.169,0,16.636,2.773,22.399,8.318
		c5.764,5.547,8.646,12.686,8.646,21.418c0,9.432-3.166,17.356-9.497,23.774C1132.34,362.883,1123.805,366.092,1113.063,366.092z
		 M1113.587,309.241c-4.63,0-8.187,2.358-10.676,7.073c-2.488,4.717-3.733,10.395-3.733,17.029c0,6.726,1.638,12.817,4.912,18.273
		c3.275,5.459,7.401,8.188,12.379,8.188c4.716,0,8.318-2.358,10.807-7.074c2.489-4.716,3.733-10.391,3.733-17.029
		c0-6.723-1.659-12.814-4.978-18.273C1122.712,311.972,1118.564,309.241,1113.587,309.241z"/>
	<path fill="#FFFFFF" d="M1216.94,305.05v43.489c0,2.446,0.676,4.236,2.03,5.371c1.353,1.136,3.515,1.702,6.484,1.702l1.048,3.93
		c-3.756,0.351-7.663,1.071-11.724,2.162c-4.062,1.093-7.185,2.118-9.366,3.078l-3.406,1.31l-0.654-9.562
		c-1.225,0.263-2.97,1.225-5.24,2.882c-2.271,1.66-4.804,3.189-7.598,4.585c-2.795,1.396-5.764,2.096-8.907,2.096
		c-5.415,0-9.607-1.571-12.575-4.716c-2.97-3.144-4.453-7.378-4.453-12.706v-31.045c0-2.531-0.635-4.389-1.899-5.567
		c-1.268-1.179-3.429-1.769-6.484-1.769v-4.322l22.924-2.096l1.179,1.179v41.263c0,6.549,3.448,9.824,10.349,9.824
		c2.096,0,4.584-0.786,7.466-2.358c2.882-1.571,4.628-2.4,5.24-2.488v-32.748c0-2.706-0.59-4.759-1.769-6.157
		c-1.179-1.396-3.429-2.096-6.746-2.096v-4.322l23.055-2.096L1216.94,305.05z"/>
	<path fill="#FFFFFF" d="M1263.441,356.923c2.096,0,4.146-0.151,6.156-0.459c2.008-0.305,3.449-0.589,4.323-0.852l1.44-0.523
		l1.048,3.799c-6.113,4.804-13.188,7.204-21.221,7.204c-4.892,0-8.799-1.42-11.724-4.257c-2.927-2.837-4.389-6.832-4.389-11.986
		v-37.595h-8.514l-0.524-3.93c3.842-1.484,7.641-3.864,11.396-7.139c3.754-3.275,6.854-6.615,9.301-10.021l4.061,1.18v12.706h18.601
		v7.99h-18.601v35.63C1254.796,354.172,1257.678,356.923,1263.441,356.923z"/>
	<path fill="#FFFFFF" d="M1351.074,288.938c-0.874,0.874-1.899,2.62-3.078,5.24c-1.179,2.619-2.118,5.022-2.816,7.204l-1.048,3.274
		h16.636l-2.357,5.764h-16.243l-8.776,23.841c-3.844,10.306-5.764,16.768-5.764,19.387c0,1.66,0.741,2.489,2.227,2.489
		c2.096,0,4.605-1.484,7.532-4.454c2.925-2.968,5.698-6.373,8.318-10.218l2.227,1.311c-2.708,5.239-6.376,10.437-11.004,15.588
		c-4.629,5.154-9.038,7.729-13.229,7.729c-4.542,0-6.812-2.706-6.812-8.121c0-3.406,0.697-7.074,2.096-11.004l12.837-36.809
		l-7.073-0.262l0.393-3.799l8.776-1.834l3.406-9.301c1.746-4.978,4.847-7.467,9.301-7.467
		C1348.629,287.496,1350.112,287.978,1351.074,288.938z"/>
	<path fill="#FFFFFF" d="M1400.066,265.752c-5.502,14.409-10.721,28.098-15.653,41.066c-4.935,12.968-8.275,21.744-10.021,26.329
		c-1.748,4.585-2.664,7.009-2.751,7.271h0.524c5.151-10.304,11.003-19.125,17.553-26.461s12.881-11.004,18.994-11.004
		c4.628,0,6.942,2.185,6.942,6.551c0,2.969-0.831,6.811-2.488,11.527l-7.86,22.269c-2.357,6.637-3.536,10.741-3.536,12.312
		c0,1.225,0.654,1.834,1.965,1.834c2.531,0,6.287-3.579,11.265-10.741l1.965,1.441c-2.619,4.892-5.72,9.104-9.3,12.641
		c-3.582,3.536-7.381,5.305-11.396,5.305c-3.319,0-4.978-1.66-4.978-4.978s1.483-9.256,4.453-17.814l7.86-22.399
		c1.048-2.969,1.571-5.152,1.571-6.551c0-1.746-0.654-2.619-1.965-2.619c-4.105,0-9.104,3.494-14.998,10.479
		c-5.895,6.988-10.896,14.737-14.999,23.252c-4.105,8.515-6.156,15.043-6.156,19.583c-1.048,0.698-2.62,1.048-4.716,1.048
		c-1.486,0-2.686-0.415-3.603-1.244c-0.917-0.831-1.375-1.942-1.375-3.341c0-1.134,0.217-2.4,0.654-3.799l25.413-75.058
		c0.609-1.834,0.917-3.275,0.917-4.323c0-2.444-2.796-3.667-8.384-3.667v-2.883C1384.434,271.43,1392.469,269.42,1400.066,265.752z"
		/>
	<path fill="#FFFFFF" d="M1466.479,357.446c3.317,0,7.378-3.93,12.182-11.789l1.966,1.31c-2.011,4.716-4.738,9.104-8.188,13.165
		c-3.451,4.061-7.228,6.091-11.331,6.091c-4.541,0-6.812-2.488-6.812-7.466c0-3.23,1.311-8.253,3.93-15.064h-0.523
		c-1.398,2.882-2.62,5.239-3.668,7.073s-2.62,4.149-4.716,6.942c-2.096,2.796-4.477,4.913-7.139,6.354
		c-2.665,1.441-5.567,2.161-8.711,2.161c-3.844,0-6.726-1.375-8.646-4.126c-1.922-2.751-2.882-6.354-2.882-10.807
		c0-6.985,1.745-13.95,5.239-20.894c3.492-6.942,8.164-12.661,14.017-17.16c5.85-4.496,11.92-6.746,18.207-6.746
		c3.406,0,6.767,1.355,10.087,4.061c0.523-1.657,1.44-3.317,2.751-4.977c1.31-1.658,2.925-2.489,4.847-2.489
		c1.834,0,3.491,0.655,4.978,1.965c-2.446,2.796-6.07,10.306-10.872,22.53c-4.804,12.228-7.205,21.221-7.205,26.984
		C1463.99,356.486,1464.819,357.446,1466.479,357.446z M1438.316,358.494c3.405,0,7.094-2.554,11.068-7.663
		c3.973-5.108,7.313-10.696,10.021-16.767c2.706-6.068,4.759-11.636,6.157-16.701c-1.66-3.93-4.585-5.895-8.776-5.895
		c-6.55,0-12.293,3.951-17.226,11.854c-4.935,7.904-7.401,16.354-7.401,25.347c0,3.494,0.459,6.005,1.376,7.532
		C1434.452,357.731,1436.044,358.494,1438.316,358.494z"/>
	<path fill="#FFFFFF" d="M1520.709,288.938c-0.874,0.874-1.899,2.62-3.078,5.24c-1.179,2.619-2.118,5.022-2.816,7.204l-1.048,3.274
		h16.636l-2.357,5.764h-16.243l-8.776,23.841c-3.844,10.306-5.764,16.768-5.764,19.387c0,1.66,0.741,2.489,2.227,2.489
		c2.096,0,4.605-1.484,7.532-4.454c2.925-2.968,5.698-6.373,8.318-10.218l2.227,1.311c-2.708,5.239-6.376,10.437-11.004,15.588
		c-4.629,5.154-9.038,7.729-13.229,7.729c-4.542,0-6.812-2.706-6.812-8.121c0-3.406,0.697-7.074,2.096-11.004l12.837-36.809
		l-7.073-0.262l0.393-3.799l8.776-1.834l3.406-9.301c1.746-4.978,4.847-7.467,9.301-7.467
		C1518.264,287.496,1519.747,287.978,1520.709,288.938z"/>
	<path fill="#FFFFFF" d="M1594.324,288.938c-0.874,0.874-1.899,2.62-3.078,5.24c-1.179,2.619-2.118,5.022-2.816,7.204l-1.048,3.274
		h16.636l-2.357,5.764h-16.243l-8.776,23.841c-3.844,10.306-5.764,16.768-5.764,19.387c0,1.66,0.741,2.489,2.227,2.489
		c2.096,0,4.605-1.484,7.532-4.454c2.925-2.968,5.698-6.373,8.318-10.218l2.227,1.311c-2.708,5.239-6.376,10.437-11.004,15.588
		c-4.629,5.154-9.038,7.729-13.229,7.729c-4.542,0-6.812-2.706-6.812-8.121c0-3.406,0.697-7.074,2.096-11.004l12.837-36.809
		l-7.073-0.262l0.393-3.799l8.776-1.834l3.406-9.301c1.746-4.978,4.847-7.467,9.301-7.467
		C1591.879,287.496,1593.362,287.978,1594.324,288.938z"/>
	<path fill="#FFFFFF" d="M1632.704,303.085l-15.457,40.215c-2.357,6.287-3.536,10.393-3.536,12.312c0,1.225,0.566,1.834,1.702,1.834
		c1.484,0,4.016-1.549,7.598-4.65c3.58-3.099,6.157-5.784,7.729-8.056l1.965,1.31c-2.445,4.542-6.113,9.019-11.003,13.427
		c-4.892,4.411-9.389,6.615-13.492,6.615c-3.32,0-4.978-1.66-4.978-4.978c0-3.668,1.091-8.47,3.274-14.409l9.562-26.854
		c0.61-1.658,0.917-3.056,0.917-4.191c0-1.396-0.655-2.357-1.965-2.882s-3.451-0.786-6.419-0.786v-2.882
		C1617.071,308.763,1625.106,306.752,1632.704,303.085z M1633.621,284.091c-1.66,0-2.992-0.524-3.995-1.571
		c-1.005-1.049-1.507-2.401-1.507-4.062c0-2.008,0.721-3.841,2.162-5.501c1.44-1.658,3.209-2.489,5.305-2.489
		c1.658,0,2.99,0.524,3.995,1.571c1.003,1.049,1.507,2.403,1.507,4.062c0,2.01-0.721,3.844-2.161,5.501
		C1637.485,283.262,1635.717,284.091,1633.621,284.091z"/>
	<path fill="#FFFFFF" d="M1694.4,322.209c-1.31,3.406-2.576,6.508-3.799,9.301c-1.224,2.797-2.161,4.912-2.816,6.354
		c-0.654,1.441-1.027,2.293-1.113,2.555h0.524c5.588-10.392,11.593-19.234,18.012-26.526c6.418-7.29,12.596-10.938,18.535-10.938
		c4.628,0,6.942,2.185,6.942,6.551c0,2.969-0.831,6.811-2.489,11.527l-7.859,22.269c-2.357,6.637-3.536,10.741-3.536,12.312
		c0,1.225,0.654,1.834,1.965,1.834c2.531,0,6.287-3.579,11.265-10.741l1.965,1.441c-2.619,4.892-5.698,9.104-9.234,12.641
		c-3.537,3.536-7.358,5.305-11.462,5.305c-3.32,0-4.978-1.66-4.978-4.978s1.483-9.256,4.453-17.814l7.859-22.399
		c1.049-2.969,1.572-5.152,1.572-6.551c0-1.746-0.655-2.619-1.965-2.619c-4.105,0-9.104,3.494-14.998,10.479
		c-5.896,6.988-10.896,14.737-14.999,23.252c-4.105,8.515-6.156,15.043-6.156,19.583c-1.049,0.698-2.62,1.048-4.716,1.048
		c-1.486,0-2.686-0.415-3.603-1.244c-0.917-0.831-1.376-1.942-1.376-3.341c0-1.048,0.218-2.312,0.655-3.799
		c2.706-9.604,6.812-21.875,12.313-36.808c1.048-2.969,1.572-5.152,1.572-6.551c0-1.746-0.655-2.619-1.965-2.619
		c-4.106,0-9.104,3.494-14.999,10.479c-5.895,6.988-10.895,14.737-14.999,23.252c-4.105,8.515-6.156,15.043-6.156,19.583
		c-1.048,0.698-2.62,1.048-4.716,1.048c-1.485,0-2.686-0.415-3.603-1.244c-0.917-0.831-1.375-1.942-1.375-3.341
		c0-1.048,0.217-2.312,0.655-3.799l11.92-37.856c0.61-1.834,0.917-3.229,0.917-4.191c0-1.396-0.655-2.357-1.965-2.882
		s-3.451-0.786-6.419-0.786v-2.882c8.47-0.348,16.505-2.358,24.103-6.025c-8.995,22.356-13.973,34.801-14.933,37.333h0.523
		c5.588-10.392,11.593-19.234,18.012-26.526c6.419-7.29,12.596-10.938,18.535-10.938c4.628,0,6.942,2.185,6.942,6.551
		C1697.413,312.646,1696.408,316.884,1694.4,322.209z"/>
	<path fill="#FFFFFF" d="M1787.927,311.992c0,4.978-3.035,9.411-9.104,13.296c-6.07,3.887-15.349,7.446-27.836,10.676
		c-1.31,4.454-1.965,8.733-1.965,12.837c0,2.796,0.721,5.132,2.161,7.009c1.441,1.879,3.733,2.815,6.878,2.815
		c3.667,0,7.355-1.353,11.068-4.061c3.711-2.706,6.57-5.545,8.58-8.515l1.965,1.441c-0.786,1.485-1.726,2.97-2.816,4.453
		c-1.093,1.486-2.751,3.451-4.978,5.896c-2.227,2.445-4.869,4.433-7.925,5.96c-3.059,1.526-6.288,2.292-9.693,2.292
		c-5.154,0-9.104-1.375-11.855-4.126s-4.126-6.658-4.126-11.724c0-3.754,0.567-7.771,1.703-12.052
		c1.134-4.277,2.882-8.515,5.239-12.706c2.358-4.191,5.086-7.968,8.188-11.33c3.099-3.361,6.767-6.069,11.003-8.122
		c4.234-2.051,8.711-3.079,13.427-3.079c3.406,0,5.938,0.896,7.598,2.686C1787.097,307.43,1787.927,309.549,1787.927,311.992z
		 M1777.841,312.909c0-3.144-1.486-4.716-4.454-4.716c-2.619,0-5.131,0.874-7.531,2.62c-2.403,1.747-4.499,3.995-6.288,6.746
		c-1.791,2.751-3.274,5.327-4.454,7.729c-1.179,2.403-2.206,4.781-3.078,7.139C1769.238,327.363,1777.841,320.857,1777.841,312.909z
		"/>
	<path fill="#FFFFFF" d="M1796.769,363.341c-1.791-1.834-2.686-4.061-2.686-6.681c0-2.619,0.895-4.847,2.686-6.681
		c1.789-1.833,4.038-2.75,6.746-2.75c2.619,0,4.847,0.917,6.681,2.75c1.834,1.834,2.751,4.062,2.751,6.681
		c0,2.62-0.917,4.847-2.751,6.681s-4.062,2.751-6.681,2.751C1800.807,366.092,1798.558,365.175,1796.769,363.341z M1837.376,363.341
		c-1.791-1.834-2.686-4.061-2.686-6.681c0-2.619,0.895-4.847,2.686-6.681c1.789-1.833,4.038-2.75,6.746-2.75
		c2.62,0,4.847,0.917,6.681,2.75c1.834,1.834,2.751,4.062,2.751,6.681c0,2.62-0.917,4.847-2.751,6.681s-4.061,2.751-6.681,2.751
		C1841.414,366.092,1839.165,365.175,1837.376,363.341z M1877.853,363.341c-1.791-1.834-2.686-4.061-2.686-6.681
		c0-2.619,0.895-4.847,2.686-6.681c1.789-1.833,4.038-2.75,6.746-2.75c2.62,0,4.847,0.917,6.681,2.75
		c1.834,1.834,2.751,4.062,2.751,6.681c0,2.62-0.917,4.847-2.751,6.681s-4.061,2.751-6.681,2.751
		C1881.891,366.092,1879.642,365.175,1877.853,363.341z"/>
</g>
<path fill="#FFFFFF" d="M792.757,31.962c0-0.375,0.268-0.642,0.643-0.642h12.603c0.326,0,0.805,0.211,1.07,0.481l4.435,4.432
	c0.268,0.268,0.478,0.749,0.478,1.071v10.092c0,0.375-0.212,0.856-0.478,1.068l-1.552,1.605c-0.266,0.268-0.266,0.694-0.054,0.906
	l1.657,1.656c0.216,0.27,0.428,0.749,0.428,1.07V66.04c0,0.323-0.212,0.805-0.477,1.07l-4.435,4.433
	c-0.268,0.266-0.747,0.482-1.07,0.482h-6.939c-0.375,0-0.645,0-0.645,0s-0.321,0-0.643,0h-4.379c-0.375,0-0.643-0.268-0.643-0.642
	V31.962z M799.061,36.983c-0.372,0-0.642,0.268-0.642,0.639v9.454c0,0.375,0.27,0.645,0.642,0.645h4.594
	c0.319,0,0.856-0.163,1.068-0.429l1.175-1.122c0.214-0.268,0.431-0.75,0.431-1.124v-5.391c0-0.32-0.214-0.856-0.431-1.068
	l-1.175-1.176c-0.214-0.214-0.75-0.427-1.07-0.427H799.061z M805.897,64.762c0.214-0.214,0.431-0.75,0.431-1.073v-7.64
	c0-0.372-0.214-0.852-0.431-1.119l-1.068-1.066c-0.268-0.27-0.75-0.482-1.068-0.482h-4.701c-0.372,0-0.642,0.321-0.642,0.64v11.693
	c0,0.375,0.27,0.643,0.642,0.643h4.594c0.319,0,0.856-0.212,1.068-0.426L805.897,64.762z"/>
<path fill="#FFFFFF" d="M836.556,50.711c0,0.375-0.214,0.852-0.477,1.123l-1.657,1.656c-0.27,0.268-0.428,0.749-0.318,1.07
	l2.937,16.822c0.051,0.375-0.214,0.642-0.533,0.642h-4.486c-0.375,0-0.693-0.268-0.749-0.642l-2.458-14.046
	c-0.051-0.321-0.375-0.591-0.749-0.591h-4.431c-0.323,0-0.642,0.27-0.586,0.591v14.046c0,0.323-0.321,0.642-0.64,0.642h-4.382
	c-0.375,0-0.642-0.268-0.693-0.642V32.015c0-0.375,0.265-0.642,0.64-0.642h12.554c0.375,0,0.854,0.213,1.124,0.479l4.433,4.436
	c0.265,0.268,0.477,0.745,0.477,1.065v13.358H836.556z M830.413,49.48c0.27-0.266,0.481-0.745,0.481-1.12v-8.654
	c0-0.319-0.212-0.856-0.481-1.068l-1.12-1.122c-0.27-0.267-0.747-0.482-1.066-0.482h-4.596c-0.323,0-0.642,0.32-0.642,0.645v12.714
	c0,0.375,0.319,0.639,0.642,0.639h4.596c0.319,0,0.796-0.162,1.066-0.429L830.413,49.48z"/>
<path fill="#FFFFFF" d="M851.779,31.962c0.109-0.322,0.429-0.587,0.803-0.587h4.326c0.319-0.055,0.693,0.265,0.747,0.587
	l9.613,39.42c0.109,0.375-0.103,0.642-0.479,0.642h-4.649c-0.372,0-0.693-0.268-0.801-0.642l-1.335-5.61
	c-0.053-0.317-0.426-0.636-0.798-0.584h-8.759c-0.375,0-0.75,0.268-0.805,0.584l-1.333,5.61c-0.054,0.375-0.428,0.642-0.803,0.642
	h-4.594c-0.374,0-0.588-0.268-0.533-0.642L851.779,31.962z M851.303,58.776c-0.054,0.375,0.156,0.638,0.477,0.638h6.039
	c0.374,0,0.584-0.319,0.477-0.638l-3.363-13.836c-0.107-0.375-0.214-0.375-0.321,0L851.303,58.776z"/>
<path fill="#FFFFFF" d="M884.9,52.419c0.105,0.321,0.214,0.321,0.214-0.054V31.962c-0.002-0.322,0.314-0.642,0.638-0.642h4.379
	c0.375,0,0.642,0.32,0.642,0.642v39.42c0,0.375-0.27,0.642-0.642,0.642h-3.523c-0.375,0-0.75-0.268-0.856-0.591l-8.226-22.915
	c-0.163-0.32-0.212-0.265-0.212,0.055v22.809c0,0.375-0.321,0.642-0.645,0.642h-4.379c-0.375,0-0.64-0.268-0.64-0.642V32.015
	c0-0.375,0.268-0.642,0.64-0.642h4.379c0.373,0,0.75,0.268,0.856,0.587L884.9,52.419z"/>
<path fill="#FFFFFF" d="M896.754,72.024c-0.375,0-0.64-0.268-0.64-0.642V32.015c0-0.375,0.265-0.642,0.64-0.642h12.605
	c0.321,0,0.856,0.157,1.068,0.429l4.433,4.432c0.268,0.268,0.482,0.749,0.482,1.119v28.684c0,0.321-0.214,0.856-0.482,1.07
	l-4.433,4.433c-0.212,0.268-0.749,0.481-1.068,0.481h-12.605V72.024z M907.009,66.363c0.319,0,0.856-0.214,1.068-0.482l1.124-1.119
	c0.268-0.214,0.479-0.75,0.479-1.073V39.707c0-0.375-0.212-0.856-0.479-1.123l-1.124-1.122c-0.212-0.212-0.749-0.429-1.068-0.429
	h-4.591c-0.326,0-0.645,0.27-0.645,0.645v28.038c0,0.324,0.319,0.643,0.645,0.643h4.591V66.363z"/>
<path fill="#FFFFFF" d="M947.395,52.419c0.104,0.321,0.212,0.321,0.212-0.054V31.962c0-0.322,0.319-0.642,0.642-0.642h4.382
	c0.375,0,0.64,0.32,0.64,0.642v39.42c0,0.375-0.266,0.642-0.64,0.642h-3.525c-0.375,0-0.75-0.268-0.856-0.591l-8.228-22.915
	c-0.163-0.318-0.212-0.265-0.212,0.055v22.809c0,0.375-0.323,0.642-0.645,0.642h-4.379c-0.375,0-0.64-0.268-0.64-0.642V32.015
	c0-0.375,0.268-0.642,0.64-0.642h4.379c0.375,0,0.749,0.268,0.856,0.587L947.395,52.419z"/>
<path fill="#FFFFFF" d="M974.951,36.449c0,0.375-0.32,0.641-0.64,0.641h-9.396c-0.373,0-0.643,0.266-0.643,0.64v7.585
	c0,0.375,0.27,0.645,0.643,0.645h7.102c0.323,0,0.641,0.319,0.641,0.639v4.379c0,0.375-0.319,0.64-0.641,0.64h-7.102
	c-0.373,0-0.643,0.319-0.643,0.641v13.462c0,0.375,0.27,0.642,0.643,0.642h9.396c0.321,0,0.64,0.27,0.64,0.64v4.38
	c0,0.375-0.32,0.642-0.64,0.642h-15.061c-0.377,0-0.643-0.268-0.643-0.642V32.069c0-0.377,0.268-0.642,0.643-0.642h15.061
	c0.321,0,0.64,0.265,0.64,0.642V36.449z"/>
<path fill="#FFFFFF" d="M1003.264,55.896c0.052,0.317,0.159,0.317,0.217,0l4.271-23.933c0.056-0.322,0.372-0.587,0.747-0.587h4.431
	c0.377,0,0.591,0.268,0.537,0.587l-6.997,39.42c-0.054,0.375-0.375,0.642-0.745,0.642h-4.919c-0.372,0-0.691-0.268-0.747-0.642
	l-3.579-22.167c-0.049-0.375-0.158-0.375-0.214,0l-3.521,22.167c-0.054,0.375-0.429,0.642-0.75,0.642h-4.914
	c-0.373,0-0.696-0.268-0.75-0.642l-7.102-39.42c-0.054-0.322,0.158-0.587,0.53-0.587h4.487c0.32,0,0.697,0.268,0.749,0.587
	l4.276,23.933c0.049,0.317,0.156,0.317,0.212,0l3.845-23.933c0.056-0.322,0.111-0.587,0.16-0.587c0.054,0,0.373,0,0.747,0h4.274
	c0.321,0,0.643,0,0.693,0c0.057,0,0.158,0.268,0.213,0.587L1003.264,55.896z"/>
<path fill="#FFFFFF" d="M1036.594,31.852c0.215-0.267,0.748-0.479,1.068-0.479h7.212c0.323,0,0.8,0.213,1.07,0.479l4.431,4.436
	c0.268,0.268,0.481,0.745,0.481,1.065v5.556c0,0.375-0.321,0.644-0.642,0.644h-4.38c-0.372,0-0.638-0.269-0.638-0.644v-3.202
	c0-0.319-0.219-0.856-0.431-1.068l-1.177-1.122c-0.213-0.267-0.745-0.482-1.07-0.482h-2.507c-0.377,0-0.858,0.218-1.07,0.482
	l-1.178,1.122c-0.214,0.212-0.428,0.749-0.428,1.068v23.98c0,0.375,0.214,0.858,0.428,1.07l1.178,1.177
	c0.212,0.214,0.693,0.428,1.07,0.428h2.507c0.325,0,0.857-0.214,1.07-0.428l1.177-1.177c0.212-0.212,0.431-0.696,0.431-1.07v-9.72
	c0-0.373-0.268-0.64-0.641-0.64h-2.673c-0.377,0-0.643-0.319-0.643-0.639v-4.382c0-0.375,0.266-0.641,0.643-0.641h8.331
	c0.322,0,0.642,0.267,0.642,0.641V66.04c0,0.323-0.214,0.856-0.481,1.07l-4.431,4.489c-0.271,0.214-0.747,0.428-1.07,0.428h-7.212
	c-0.32,0-0.854-0.214-1.068-0.428l-4.486-4.489c-0.216-0.214-0.43-0.747-0.43-1.07V37.355c0-0.32,0.214-0.8,0.43-1.065
	L1036.594,31.852z"/>
<path fill="#FFFFFF" d="M1069.232,64.813c0.264-0.266,0.431-0.75,0.431-1.124V32.015c0-0.375,0.319-0.642,0.638-0.642h4.377
	c0.375,0,0.641,0.268,0.641,0.642V66.04c0,0.375-0.212,0.856-0.424,1.124l-4.438,4.431c-0.263,0.214-0.742,0.431-1.117,0.431h-7.16
	c-0.377,0-0.854-0.216-1.121-0.431l-4.436-4.431c-0.212-0.268-0.426-0.749-0.426-1.124V32.015c0-0.375,0.27-0.642,0.64-0.642h4.382
	c0.321,0,0.64,0.268,0.64,0.642v31.674c0,0.375,0.219,0.858,0.429,1.124l1.121,1.122c0.266,0.214,0.75,0.428,1.122,0.428h2.457
	c0.368,0,0.854-0.214,1.12-0.428L1069.232,64.813z"/>
<path fill="#FFFFFF" d="M1091.451,43.447c0.109,0.375,0.321,0.375,0.484,0l4.645-11.485c0.107-0.322,0.533-0.587,0.856-0.587h4.858
	c0.321,0,0.533,0.268,0.377,0.587l-7.904,19.601c-0.111,0.321-0.219,0.909-0.219,1.23v18.589c0,0.375-0.318,0.642-0.638,0.642
	h-4.384c-0.37,0-0.638-0.268-0.638-0.642V52.903c0-0.375-0.105-0.912-0.268-1.231l-7.905-19.71c-0.16-0.322,0.049-0.587,0.372-0.587
	h4.861c0.321,0,0.749,0.268,0.856,0.587L1091.451,43.447z"/>
<path fill="#FFFFFF" d="M1112.975,31.852c0.27-0.267,0.749-0.479,1.07-0.479h7.211c0.373,0,0.856,0.213,1.122,0.479l4.431,4.436
	c0.214,0.268,0.43,0.745,0.43,1.065v5.556c0,0.375-0.268,0.644-0.64,0.644h-4.384c-0.316,0-0.64-0.269-0.64-0.644v-3.202
	c0-0.319-0.156-0.856-0.424-1.068l-1.124-1.176c-0.266-0.212-0.749-0.429-1.121-0.429h-2.512c-0.323,0-0.803,0.217-1.067,0.429
	l-1.12,1.176c-0.271,0.212-0.483,0.749-0.483,1.068v5.661c0,0.32,0.212,0.856,0.428,1.069l1.178,1.123
	c0.214,0.266,0.691,0.483,1.068,0.483h4.86c0.319,0,0.856,0.212,1.068,0.424l4.486,4.438c0.215,0.263,0.431,0.745,0.431,1.119V66.04
	c0,0.323-0.216,0.856-0.431,1.07l-4.431,4.489c-0.265,0.214-0.749,0.428-1.121,0.428h-7.212c-0.32,0-0.801-0.214-1.07-0.428
	l-4.433-4.489c-0.263-0.214-0.481-0.747-0.481-1.07v-6.837c0-0.375,0.327-0.636,0.645-0.636h4.379c0.375,0,0.641,0.261,0.641,0.636
	v4.486c0,0.375,0.211,0.858,0.483,1.124l1.119,1.122c0.266,0.214,0.747,0.428,1.068,0.428h2.511c0.372,0,0.856-0.214,1.121-0.428
	l1.125-1.122c0.265-0.266,0.423-0.75,0.423-1.124v-7.316c0-0.375-0.155-0.852-0.423-1.12l-1.176-1.122
	c-0.217-0.266-0.7-0.428-1.072-0.428h-4.861c-0.321,0-0.854-0.214-1.07-0.481l-4.484-4.434c-0.214-0.267-0.431-0.744-0.431-1.121
	V37.355c0-0.32,0.219-0.8,0.481-1.065L1112.975,31.852z"/>
<g>
	<path fill="#FFFFFF" d="M874.878,109.216c0.056-0.262,0.084-0.506,0.084-0.73c0-0.58-0.201-1.044-0.604-1.391
		c-0.403-0.346-0.913-0.52-1.531-0.52c-1.011,0-1.821,0.497-2.43,1.489c-0.609,0.993-0.913,2.229-0.913,3.708
		c0,1.723,0.398,2.982,1.194,3.778s1.868,1.194,3.216,1.194c0.937,0,1.938-0.197,3.006-0.59l0.365,0.702
		c-0.806,0.656-1.592,1.143-2.36,1.46c-0.768,0.318-1.77,0.478-3.005,0.478c-1.798,0-3.268-0.566-4.41-1.699
		c-1.143-1.133-1.714-2.692-1.714-4.677c0-2.191,0.726-3.933,2.177-5.225c1.451-1.292,3.244-1.938,5.379-1.938
		c1.254,0,2.317,0.225,3.188,0.674c0.871,0.449,1.307,1.096,1.307,1.938c0,0.506-0.174,0.904-0.52,1.194
		c-0.347,0.291-0.8,0.436-1.362,0.436C875.496,109.497,875.14,109.404,874.878,109.216z"/>
	<path fill="#FFFFFF" d="M884.625,105.284v2.079c0.168-0.056,0.473-0.262,0.913-0.618c0.44-0.355,0.927-0.692,1.461-1.011
		c0.534-0.318,1.053-0.478,1.559-0.478c0.636,0,1.133,0.192,1.489,0.576c0.355,0.384,0.534,0.848,0.534,1.391
		c0,0.656-0.178,1.138-0.534,1.447c-0.356,0.309-0.815,0.463-1.376,0.463c-0.487,0-0.89-0.112-1.208-0.337
		c0.056-0.15,0.084-0.328,0.084-0.534c0-0.524-0.253-0.787-0.759-0.787c-0.3,0-0.698,0.146-1.194,0.436
		c-0.496,0.291-0.819,0.454-0.969,0.491v7.416c0,0.506,0.098,0.867,0.295,1.082c0.196,0.216,0.52,0.342,0.969,0.379l1.405,0.141
		v0.927c-1.274-0.056-2.753-0.084-4.438-0.084l-3.764,0.084v-0.927l0.506-0.084c0.487-0.094,0.885-0.29,1.194-0.59
		c0.309-0.299,0.463-0.684,0.463-1.152v-6.517c0-0.543-0.146-0.936-0.436-1.18c-0.291-0.243-0.754-0.365-1.39-0.365l-0.225-0.843
		c0.805-0.075,1.658-0.229,2.557-0.463c0.898-0.234,1.601-0.445,2.106-0.632L884.625,105.284z"/>
	<path fill="#FFFFFF" d="M903.305,110.115l-0.646,0.787l-8.034-0.113c-0.038,0.319-0.056,0.646-0.056,0.983
		c0,1.386,0.398,2.552,1.194,3.497c0.796,0.946,2.009,1.419,3.638,1.419c1.03,0,2.088-0.168,3.174-0.506l0.394,0.73
		c-0.768,0.656-1.573,1.133-2.416,1.433s-1.882,0.449-3.118,0.449c-1.816,0-3.305-0.58-4.466-1.741s-1.742-2.706-1.742-4.635
		c0-2.079,0.707-3.792,2.121-5.141c1.414-1.348,3.132-2.022,5.154-2.022c1.592,0,2.791,0.44,3.596,1.32
		C902.902,107.456,903.305,108.636,903.305,110.115z M894.766,109.694l5.253-0.309c0.019-0.093,0.028-0.243,0.028-0.449
		c0-1.611-0.674-2.416-2.023-2.416c-0.805,0-1.502,0.291-2.093,0.871C895.341,107.971,894.953,108.739,894.766,109.694z"/>
	<path fill="#FFFFFF" d="M912.154,109.413c0-0.974-0.164-1.662-0.491-2.065c-0.328-0.402-0.885-0.604-1.672-0.604
		c-0.562,0-0.974,0.155-1.236,0.463c-0.262,0.309-0.393,0.66-0.393,1.054c0,0.318,0.075,0.6,0.225,0.843
		c-0.337,0.337-0.833,0.505-1.489,0.505c-0.543,0-0.96-0.131-1.25-0.393c-0.291-0.262-0.436-0.608-0.436-1.04
		c0-0.88,0.557-1.587,1.671-2.121s2.402-0.801,3.863-0.801c1.46,0,2.593,0.361,3.399,1.082c0.805,0.721,1.208,1.793,1.208,3.216
		c0,0.524-0.042,1.418-0.126,2.683c-0.084,1.264-0.126,2.168-0.126,2.711c0,0.618,0.14,1.109,0.421,1.475
		c0.281,0.365,0.665,0.548,1.151,0.548c0.168,0,0.337-0.014,0.506-0.042c0.168-0.028,0.29-0.061,0.365-0.099l0.14-0.056l0.365,0.618
		c-0.075,0.112-0.192,0.244-0.351,0.393c-0.159,0.15-0.505,0.356-1.039,0.618c-0.534,0.262-1.101,0.393-1.7,0.393
		c-1.255,0-2.154-0.486-2.697-1.46c-0.244,0.075-0.585,0.239-1.025,0.492c-0.44,0.252-0.922,0.478-1.447,0.674
		c-0.524,0.197-1.114,0.295-1.77,0.295c-1.03,0-1.864-0.252-2.5-0.758c-0.637-0.505-0.955-1.217-0.955-2.135
		c0-1.386,0.627-2.434,1.882-3.146s3.062-1.068,5.422-1.068C912.126,110.771,912.154,110.012,912.154,109.413z M908.081,115.424
		c0,1.086,0.608,1.629,1.826,1.629c0.299,0,0.721-0.094,1.264-0.281c0.543-0.187,0.871-0.29,0.983-0.309
		c-0.15-0.45-0.225-1.021-0.225-1.714l0.112-1.966c-1.105,0-2.042,0.22-2.809,0.66C908.464,113.884,908.081,114.544,908.081,115.424
		z"/>
	<path fill="#FFFFFF" d="M925.497,116.829c0.45,0,0.889-0.032,1.32-0.098c0.431-0.065,0.74-0.126,0.927-0.183l0.309-0.112
		l0.225,0.814c-1.311,1.03-2.828,1.545-4.55,1.545c-1.049,0-1.887-0.304-2.514-0.913c-0.628-0.608-0.941-1.465-0.941-2.57v-8.062
		h-1.826l-0.112-0.843c0.824-0.318,1.639-0.829,2.444-1.531c0.805-0.702,1.47-1.418,1.995-2.149l0.871,0.253v2.725h3.989v1.713
		h-3.989v7.641C923.643,116.239,924.261,116.829,925.497,116.829z"/>
	<path fill="#FFFFFF" d="M935.02,105.284v10.534c0,0.506,0.07,0.862,0.21,1.067c0.141,0.207,0.389,0.337,0.745,0.394l0.843,0.141
		v0.927c-1.162-0.056-2.351-0.084-3.568-0.084l-3.651,0.084v-0.927l0.562-0.084c0.993-0.15,1.489-0.73,1.489-1.742v-6.517
		c0-0.543-0.145-0.936-0.435-1.18c-0.291-0.243-0.754-0.365-1.391-0.365l-0.225-0.843c0.805-0.075,1.657-0.229,2.556-0.463
		c0.899-0.234,1.601-0.445,2.107-0.632L935.02,105.284z M931.031,99.946c0-0.543,0.196-1.001,0.59-1.376
		c0.393-0.375,0.88-0.562,1.46-0.562c0.562,0,1.04,0.188,1.433,0.562c0.394,0.375,0.59,0.833,0.59,1.376
		c0,0.562-0.196,1.035-0.59,1.418c-0.393,0.384-0.871,0.576-1.433,0.576c-0.581,0-1.067-0.192-1.46-0.576
		C931.227,100.981,931.031,100.508,931.031,99.946z"/>
	<path fill="#FFFFFF" d="M940.693,105.817l3.314-0.112v0.927l-0.562,0.141c-0.637,0.15-0.955,0.412-0.955,0.787
		c0,0.038,0.046,0.225,0.14,0.562l2.135,6.461l2.472-5.927c0.225-0.58,0.337-0.974,0.337-1.18c0-0.337-0.272-0.571-0.815-0.702
		l-0.59-0.141v-0.927c0.937,0.056,1.807,0.084,2.613,0.084l2.528-0.084v0.927l-0.59,0.141c-0.487,0.112-0.88,0.328-1.18,0.646
		c-0.3,0.319-0.581,0.796-0.843,1.433l-4.242,9.944h-1.236l-4.045-10.45c-0.206-0.524-0.412-0.899-0.618-1.124
		c-0.207-0.225-0.478-0.375-0.815-0.449l-0.59-0.141v-0.927C938.315,105.78,939.495,105.817,940.693,105.817z"/>
	<path fill="#FFFFFF" d="M963.419,110.115l-0.646,0.787l-8.034-0.113c-0.038,0.319-0.056,0.646-0.056,0.983
		c0,1.386,0.398,2.552,1.194,3.497c0.796,0.946,2.009,1.419,3.638,1.419c1.03,0,2.088-0.168,3.175-0.506l0.393,0.73
		c-0.768,0.656-1.572,1.133-2.416,1.433c-0.843,0.299-1.882,0.449-3.118,0.449c-1.816,0-3.305-0.58-4.466-1.741
		s-1.742-2.706-1.742-4.635c0-2.079,0.707-3.792,2.121-5.141c1.414-1.348,3.132-2.022,5.154-2.022c1.592,0,2.791,0.44,3.595,1.32
		C963.015,107.456,963.419,108.636,963.419,110.115z M954.879,109.694l5.253-0.309c0.019-0.093,0.028-0.243,0.028-0.449
		c0-1.611-0.674-2.416-2.023-2.416c-0.805,0-1.502,0.291-2.093,0.871C955.455,107.971,955.066,108.739,954.879,109.694z"/>
	<path fill="#FFFFFF" d="M974.486,116.941c0.712,0,1.582-0.843,2.612-2.528l0.422,0.281c-0.432,1.011-1.017,1.952-1.756,2.823
		c-0.74,0.871-1.55,1.306-2.43,1.306c-0.975,0-1.461-0.534-1.461-1.601c0-0.693,0.281-1.77,0.843-3.23h-0.112
		c-0.3,0.618-0.562,1.124-0.787,1.517c-0.225,0.394-0.562,0.89-1.011,1.489s-0.96,1.053-1.531,1.362s-1.193,0.463-1.868,0.463
		c-0.824,0-1.442-0.295-1.854-0.885c-0.412-0.59-0.618-1.362-0.618-2.317c0-1.498,0.374-2.992,1.124-4.48
		c0.748-1.489,1.75-2.715,3.005-3.68c1.255-0.964,2.557-1.447,3.905-1.447c0.73,0,1.451,0.291,2.163,0.871
		c0.112-0.355,0.309-0.711,0.59-1.067c0.28-0.355,0.627-0.534,1.039-0.534c0.394,0,0.749,0.14,1.067,0.421
		c-0.524,0.6-1.302,2.21-2.331,4.832c-1.03,2.622-1.545,4.551-1.545,5.787C973.953,116.735,974.131,116.941,974.486,116.941z
		 M968.447,117.166c0.73,0,1.521-0.548,2.373-1.644c0.853-1.095,1.568-2.293,2.149-3.596c0.58-1.301,1.021-2.495,1.32-3.582
		c-0.356-0.842-0.983-1.264-1.883-1.264c-1.404,0-2.636,0.847-3.693,2.542c-1.059,1.695-1.587,3.507-1.587,5.436
		c0,0.749,0.098,1.288,0.295,1.615C967.618,117.002,967.96,117.166,968.447,117.166z"/>
	<path fill="#FFFFFF" d="M981.789,124.694c1.349,0,2.346-0.267,2.992-0.801c0.646-0.534,0.969-1.147,0.969-1.84
		c0-0.6-0.201-1.058-0.604-1.376c-0.403-0.319-1.109-0.627-2.121-0.927c-0.618-0.187-1.077-0.333-1.377-0.435
		c-0.299-0.103-0.659-0.267-1.081-0.492c-0.421-0.225-0.726-0.487-0.913-0.787c-0.188-0.299-0.28-0.655-0.28-1.067
		c0-0.692,0.257-1.245,0.772-1.657c0.515-0.412,1.109-0.665,1.783-0.759c-1.33-0.393-1.994-1.385-1.994-2.978
		c0-1.591,0.557-3.043,1.671-4.354c1.114-1.311,2.421-1.966,3.919-1.966c0.824,0,1.526,0.263,2.106,0.787
		c0.524,0.112,1.002,0.168,1.433,0.168c0.769,0,1.424-0.187,1.967-0.562c0.318,0.243,0.478,0.543,0.478,0.898
		c0,0.319-0.108,0.586-0.323,0.801c-0.216,0.215-0.529,0.323-0.94,0.323c-0.356,0-0.772-0.126-1.25-0.379s-0.745-0.388-0.801-0.407
		c0.187,0.412,0.28,0.965,0.28,1.657c0,1.517-0.501,2.884-1.503,4.101c-1.002,1.218-2.205,1.892-3.609,2.023
		c-1.386,0.243-2.078,0.74-2.078,1.489c0,0.262,0.135,0.496,0.407,0.702c0.271,0.206,0.565,0.365,0.885,0.478
		c0.318,0.112,0.814,0.271,1.488,0.478c1.349,0.393,2.304,0.88,2.865,1.46c0.562,0.581,0.843,1.32,0.843,2.219
		c0,1.236-0.59,2.252-1.77,3.048s-2.706,1.194-4.579,1.194c-1.572,0-2.832-0.333-3.777-0.997c-0.946-0.665-1.419-1.541-1.419-2.626
		c0-0.712,0.201-1.283,0.604-1.713c0.403-0.431,0.903-0.646,1.503-0.646c0.318,0,0.576,0.075,0.772,0.225
		c0.197,0.149,0.313,0.327,0.352,0.534c-0.881,0.149-1.32,0.683-1.32,1.601c0,0.711,0.327,1.32,0.983,1.826
		C979.776,124.441,980.666,124.694,981.789,124.694z M984.907,106.07c-0.674,0-1.245,0.333-1.713,0.998
		c-0.469,0.665-0.792,1.376-0.97,2.135s-0.267,1.484-0.267,2.177c0,1.667,0.496,2.5,1.488,2.5c0.675,0,1.25-0.328,1.728-0.983
		c0.478-0.655,0.811-1.367,0.998-2.135c0.187-0.768,0.28-1.498,0.28-2.191C986.452,106.904,985.938,106.07,984.907,106.07z"/>
	<path fill="#FFFFFF" d="M1001.172,107.194c0,1.067-0.651,2.018-1.953,2.851c-1.302,0.833-3.291,1.597-5.969,2.29
		c-0.281,0.955-0.422,1.873-0.422,2.753c0,0.599,0.155,1.1,0.464,1.502c0.309,0.403,0.801,0.604,1.475,0.604
		c0.787,0,1.577-0.29,2.374-0.871c0.796-0.58,1.409-1.189,1.84-1.826l0.421,0.309c-0.168,0.319-0.37,0.637-0.604,0.955
		c-0.234,0.319-0.59,0.74-1.067,1.264c-0.478,0.524-1.044,0.951-1.699,1.278c-0.656,0.327-1.349,0.491-2.079,0.491
		c-1.105,0-1.952-0.295-2.542-0.885s-0.885-1.428-0.885-2.514c0-0.805,0.121-1.667,0.365-2.584c0.243-0.917,0.617-1.826,1.123-2.725
		s1.091-1.708,1.756-2.43c0.664-0.721,1.451-1.301,2.359-1.742c0.908-0.44,1.868-0.66,2.88-0.66c0.73,0,1.273,0.192,1.629,0.576
		C1000.993,106.215,1001.172,106.669,1001.172,107.194z M999.009,107.39c0-0.674-0.319-1.011-0.955-1.011
		c-0.562,0-1.101,0.188-1.615,0.562c-0.516,0.375-0.965,0.857-1.349,1.447s-0.702,1.143-0.955,1.657
		c-0.253,0.515-0.474,1.025-0.66,1.531C997.164,110.49,999.009,109.095,999.009,107.39z"/>
	<path fill="#FFFFFF" d="M1011.817,116.941c0.543,0,1.349-0.768,2.416-2.304l0.422,0.309c-0.562,1.049-1.223,1.952-1.98,2.711
		c-0.759,0.758-1.578,1.137-2.458,1.137c-0.712,0-1.067-0.356-1.067-1.067s0.318-1.984,0.955-3.82l1.686-4.803
		c0.225-0.637,0.337-1.105,0.337-1.405c0-0.375-0.141-0.562-0.422-0.562c-0.88,0-1.952,0.749-3.216,2.247
		c-1.265,1.499-2.337,3.16-3.217,4.986c-0.88,1.826-1.32,3.226-1.32,4.199c-0.225,0.15-0.562,0.225-1.011,0.225
		c-0.319,0-0.576-0.089-0.772-0.267c-0.197-0.178-0.295-0.417-0.295-0.716c0-0.225,0.046-0.496,0.14-0.814l2.557-8.119
		c0.131-0.43,0.196-0.73,0.196-0.898c0-0.3-0.14-0.506-0.421-0.618s-0.74-0.168-1.377-0.168v-0.618
		c1.816-0.075,3.54-0.506,5.169-1.292c-1.929,4.794-2.996,7.463-3.202,8.006h0.112c1.198-2.229,2.486-4.125,3.862-5.688
		c1.377-1.563,2.701-2.346,3.975-2.346c0.993,0,1.489,0.468,1.489,1.405c0,0.637-0.178,1.46-0.534,2.472l-1.685,4.775
		c-0.506,1.423-0.759,2.304-0.759,2.641C1011.396,116.811,1011.537,116.941,1011.817,116.941z"/>
	<path fill="#FFFFFF" d="M1025.526,108.542c0.112-0.318,0.169-0.58,0.169-0.787c0-0.768-0.478-1.151-1.433-1.151
		c-1.012,0-1.935,0.482-2.768,1.446c-0.833,0.965-1.446,2.083-1.84,3.357c-0.394,1.274-0.59,2.5-0.59,3.68
		c0,0.674,0.159,1.194,0.478,1.559c0.318,0.365,0.759,0.548,1.32,0.548c1.535,0,2.949-0.899,4.242-2.697l0.421,0.309
		c-0.318,0.637-0.679,1.222-1.081,1.756c-0.403,0.534-0.979,1.039-1.728,1.517c-0.75,0.478-1.555,0.716-2.416,0.716
		c-2.359,0-3.54-1.133-3.54-3.399c0-1.535,0.389-3.08,1.166-4.635c0.777-1.554,1.868-2.86,3.272-3.918
		c1.405-1.058,2.902-1.587,4.495-1.587c0.562,0,1.043,0.126,1.446,0.379c0.402,0.253,0.604,0.642,0.604,1.166
		c0,0.524-0.182,0.955-0.547,1.292c-0.365,0.337-0.792,0.505-1.278,0.505C1025.77,108.598,1025.639,108.58,1025.526,108.542z"/>
	<path fill="#FFFFFF" d="M1040.583,107.222c0,1.255-0.558,2.903-1.672,4.944c-1.114,2.042-2.472,4.022-4.073,5.941
		c-1.601,1.919-3.39,3.577-5.365,4.972c-1.976,1.395-3.731,2.093-5.267,2.093c-0.562,0-1.007-0.136-1.335-0.407
		c-0.327-0.272-0.491-0.632-0.491-1.082c0-0.806,0.422-1.32,1.265-1.545c0.187,0.599,0.684,0.898,1.488,0.898
		c1.329,0,2.612-0.365,3.849-1.095c1.235-0.73,2.031-1.461,2.388-2.191c0.112-0.243,0.168-1.049,0.168-2.416
		c0-1.442-0.225-4.635-0.674-9.579c-0.038-0.431-0.15-0.646-0.337-0.646c-0.3,0-0.623,0.239-0.969,0.716
		c-0.348,0.478-0.581,0.871-0.703,1.18c-0.122,0.309-0.22,0.567-0.295,0.772l-0.449-0.056c0.075-0.487,0.239-1.043,0.492-1.671
		c0.252-0.627,0.674-1.25,1.264-1.868c0.59-0.618,1.25-0.927,1.98-0.927c0.449,0,0.749,0.15,0.898,0.45
		c0.15,0.3,0.243,0.73,0.281,1.292c0.206,3.633,0.309,7.388,0.309,11.264c1.255-1.198,2.393-2.753,3.413-4.663
		s1.531-3.53,1.531-4.859c0-1.086-0.412-1.695-1.236-1.826c0.075-0.505,0.276-0.903,0.604-1.194c0.327-0.29,0.706-0.435,1.138-0.435
		c0.543,0,0.979,0.183,1.306,0.547C1040.419,106.196,1040.583,106.66,1040.583,107.222z"/>
</g>
<line fill="#FFFFFF" stroke="#FFFFFF" stroke-width="2" stroke-miterlimit="10" x1="865.074" y1="154" x2="1041.268" y2="154"/>
</svg>